Results
version=1
nRows=22
nColumns=24
inDegrees=yes
endheader
time	pelvis_tilt	pelvis_list	pelvis_rotation	pelvis_tx	pelvis_ty	pelvis_tz	hip_flexion_r	hip_adduction_r	hip_rotation_r	knee_angle_r	ankle_angle_r	subtalar_angle_r	mtp_angle_r	hip_flexion_l	hip_adduction_l	hip_rotation_l	knee_angle_l	ankle_angle_l	subtalar_angle_l	mtp_angle_l	lumbar_extension	lumbar_bending	lumbar_rotation
      0.70400000	     -3.78839460	      4.25773159	     10.58068481	     -0.08486490	      0.98851464	      0.27294323	     33.46689674	     -6.22343851	    -10.83633885	     -4.38785957	      9.03941489	      1.89290490	     14.02910184	    -12.92881057	      7.46598938	     12.87031339	    -12.48555604	     14.47895350	     -3.34020979	      2.98624180	     -5.80939592	     -6.55910328	     -9.22496461
      0.70816667	     -3.82067087	      4.20209606	     10.66050289	     -0.07899677	      0.98781781	      0.27309952	     33.51837551	     -6.17274003	    -10.47549374	     -4.96391076	      9.05006005	      1.37698816	     14.06540996	    -13.10875448	      7.31803051	     12.77879289	    -12.72385489	     14.42432393	     -3.06634595	      3.02080473	     -5.67434534	     -6.49731678	     -9.10637585
      0.71233333	     -3.85590752	      4.11475580	     10.76913174	     -0.07307110	      0.98718105	      0.27321404	     33.52958420	     -6.09451769	    -10.10197247	     -5.46806930	      8.90796764	      0.62215780	     14.10002634	    -13.29009726	      7.13755606	     12.80763589	    -12.94703348	     14.28094591	     -2.97844269	      3.07377415	     -5.53661209	     -6.37826168	     -9.20132895
      0.71650000	     -3.88511874	      4.02513706	     10.86895233	     -0.06710375	      0.98657496	      0.27335195	     33.52855201	     -6.00351510	     -9.73176995	     -5.96734017	      8.69036201	     -0.19288897	     14.13874795	    -13.47366585	      6.95433063	     12.82952823	    -13.17601436	     14.10288799	     -2.91159411	      3.15029422	     -5.40591852	     -6.25952629	     -9.27412807
      0.72066667	     -3.90302472	      3.92673083	     10.96198301	     -0.06109810	      0.98600814	      0.27350478	     33.50912808	     -5.89544699	     -9.39195740	     -6.45662408	      8.40486710	     -1.02210165	     14.18230660	    -13.65893257	      6.76063009	     12.83476451	    -13.42067451	     13.90766848	     -2.84710044	      3.25189658	     -5.28561003	     -6.12980106	     -9.33298548
      0.72483333	     -3.92799793	      3.82289144	     11.05178644	     -0.05505660	      0.98546275	      0.27368222	     33.49148332	     -5.77627099	     -9.07476112	     -6.93387303	      8.04721367	     -1.87793662	     14.23314709	    -13.82497442	      6.56305274	     12.83359015	    -13.68552316	     13.69750086	     -2.78758886	      3.38408812	     -5.14920383	     -5.99800715	     -9.38411309
      0.72900000	     -3.95122443	      3.70550177	     11.13400681	     -0.04895656	      0.98495398	      0.27386542	     33.46345627	     -5.63724955	     -8.78456373	     -7.39439016	      7.62504628	     -2.73790608	     14.28699486	    -13.98690515	      6.35249825	     12.82123761	    -13.95424017	     13.45131080	     -2.72640224	      3.53431924	     -4.99852908	     -5.84395936	     -9.43212120
      0.73316667	     -3.97144615	      3.59387552	     11.21464953	     -0.04285869	      0.98447761	      0.27408609	     33.42997964	     -5.49549213	     -8.50167735	     -7.84658445	      7.15344509	     -3.64524821	     14.35946727	    -14.12738751	      6.14780814	     12.78863390	    -14.27186114	     13.20794013	     -2.67049023	      3.74879027	     -4.87054529	     -5.71404262	     -9.46039339
      0.73733333	     -3.99435384	      3.46278995	     11.28639700	     -0.03669833	      0.98403367	      0.27431130	     33.39403255	     -5.32972561	     -8.25632531	     -8.28207711	      6.60843249	     -4.53116724	     14.44143302	    -14.26071896	      5.92551076	     12.75197740	    -14.58688012	     12.91732170	     -2.61281966	      4.00356948	     -4.71590451	     -5.55136677	     -9.49032088
      0.74150000	     -4.01758921	      3.32117287	     11.34807610	     -0.03050039	      0.98362249	      0.27455096	     33.35623860	     -5.14700820	     -8.03543608	     -8.70691354	      6.01022688	     -5.39386883	     14.52479379	    -14.38088877	      5.69542112	     12.69826728	    -14.91939225	     12.60181442	     -2.56103779	      4.28022602	     -4.55326720	     -5.37274698	     -9.50665187
      0.74566667	     -4.00613625	      3.15147664	     11.39339755	     -0.02423959	      0.98329060	      0.27483628	     33.28023079	     -4.92223638	     -7.87376590	     -9.11807646	      5.37362051	     -6.19887176	     15.40596354	    -14.51293311	      5.41971776	     12.52202880	    -15.27438722	     12.24792997	     -2.32936286	      7.09490627	     -4.40898734	     -5.15167002	     -9.40540312
      0.74983333	     -4.07625392	      3.01116341	     11.44870572	     -0.01801178	      0.98289712	      0.27509085	     33.29883381	     -4.74381682	     -7.69257642	     -9.55066220	      4.68920238	     -6.97793967	     15.40979845	    -14.56040927	      5.21508401	     12.53427374	    -15.64693587	     11.82232968	     -2.46334536	      7.17160733	     -4.19254415	     -4.98888937	     -9.51081130
      0.75400000	     -4.10001783	      2.84582895	     11.48154092	     -0.01173684	      0.98260219	      0.27539742	     33.26438747	     -4.51814524	     -7.52986315	     -9.96417057	      3.97915103	     -7.74986711	     15.42383910	    -14.63539947	      4.97134837	     12.44825072	    -16.04319595	     11.41219458	     -2.43332385	      7.29840298	     -4.01677235	     -4.78422301	     -9.49847703
      0.75816667	     -4.10962110	      2.68310280	     11.49668100	     -0.00544969	      0.98236235	      0.27574429	     33.21997630	     -4.28242728	     -7.36525430	    -10.38517837	      3.25487202	     -8.47897913	     15.46105812	    -14.70922266	      4.72890877	     12.31910121	    -16.46017976	     10.95814728	     -2.35508610	      7.55490646	     -3.86053777	     -4.58990797	     -9.46462738
      0.76233333	     -4.10418848	      2.47370431	     11.52007497	      0.00087410	      0.98219405	      0.27608051	     33.15473373	     -4.00598423	     -7.27380611	    -10.79068893	      2.53483607	     -9.13086401	     15.81470446	    -14.75667936	      4.42813189	     12.11762998	    -16.93324178	     10.50799910	     -2.19273006	      9.62104887	     -3.70750598	     -4.31318049	     -9.36012626
      0.76650000	     -4.17409175	      2.29154889	     11.51688779	      0.00720274	      0.98195526	      0.27643397	     33.19412397	     -3.75682485	     -7.13815158	    -11.25204207	      1.84589623	     -9.70965016	     15.81211488	    -14.73648209	      4.19813154	     12.03062285	    -17.39635996	      9.96906718	     -2.30834167	      9.69995525	     -3.45235145	     -4.08915927	     -9.39309853
      0.77066667	     -4.17753246	      2.09372701	     11.49903038	      0.01353147	      0.98185418	      0.27683951	     33.15925945	     -3.47073562	     -7.01619434	    -11.69903930	      1.16339839	    -10.28296891	     15.81515779	    -14.75155010	      3.93264637	     11.84659756	    -17.90833180	      9.42185894	     -2.28444015	      9.84621449	     -3.29431658	     -3.85260537	     -9.33182578
      0.77483333	     -4.18583055	      1.90185321	     11.46574243	      0.01986753	      0.98179520	      0.27728127	     33.13883028	     -3.18313417	     -6.87587928	    -12.17150109	      0.49729902	    -10.80931574	     15.82785216	    -14.74676682	      3.67658860	     11.63300943	    -18.43588617	      8.82323647	     -2.21106693	     10.13770800	     -3.12944118	     -3.61931675	     -9.25070792
      0.77900000	     -4.16049361	      1.66008728	     11.43066448	      0.02624061	      0.98182366	      0.27771814	     33.08489637	     -2.84681122	     -6.80550494	    -12.64596392	     -0.08084984	    -11.20538269	     15.96681858	    -14.73864616	      3.35528926	     11.34055100	    -19.01030209	      8.19521470	     -2.08595693	     12.81646813	     -2.99240075	     -3.29575066	     -9.12368062
      0.78316667	     -4.20861371	      1.45605169	     11.36901602	      0.03259724	      0.98178832	      0.27818507	     33.13441394	     -2.54755838	     -6.67774241	    -13.18618932	     -0.60823323	    -11.56209973	     15.95583520	    -14.65390410	      3.11416995	     11.13626396	    -19.59601559	      7.49959451	     -2.18075070	     12.89111428	     -2.76209011	     -3.04769132	     -9.09535089
      0.78733333	     -4.19158234	      1.23333795	     11.29160169	      0.03896542	      0.98189359	      0.27869353	     33.10940179	     -2.20942289	     -6.55155994	    -13.71470536	     -1.11775008	    -11.92837986	     15.93931242	    -14.60882588	      2.83408893	     10.84305010	    -20.21565682	      6.78532118	     -2.14674976	     13.05881311	     -2.61919682	     -2.76492780	     -8.97988241
      0.79150000	     -4.16093940	      1.02591301	     11.20726773	      0.04533022	      0.98206264	      0.27919826	     33.09341759	     -1.89634296	     -6.50186998	    -14.31199562	     -1.43846237	    -12.00630363	     15.92991415	    -14.56250672	      2.57060242	     10.53871830	    -20.85816118	      5.99319980	     -2.12124998	     13.11479918	     -2.48758281	     -2.49950046	     -8.94747201
